<svg width="30" height="30" viewBox="0 0 30 30" fill="none" xmlns="http://www.w3.org/2000/svg">
<rect opacity="0.25" width="30" height="30" rx="15" fill="#D70000"/>
<path d="M19.5488 12.3903C19.6795 12.3903 19.7981 12.4473 19.8918 12.5437C19.9792 12.6466 20.0232 12.7744 20.0104 12.9094C20.0104 12.954 19.6611 17.3723 19.4615 19.2321C19.3365 20.3734 18.6008 21.0663 17.4972 21.0853C16.6486 21.1043 15.8192 21.1109 15.0025 21.1109C14.1354 21.1109 13.2875 21.1043 12.4644 21.0853C11.3978 21.0597 10.6614 20.3544 10.5428 19.2321C10.3375 17.3658 9.99452 12.954 9.98814 12.9094C9.98177 12.7744 10.0251 12.6466 10.1131 12.5437C10.1998 12.4473 10.3248 12.3903 10.4561 12.3903H19.5488ZM16.3535 8C16.933 8 17.4507 8.40447 17.6006 8.98134L17.7077 9.45988C17.7944 9.84993 18.1323 10.1259 18.5212 10.1259H20.4326C20.6876 10.1259 20.8999 10.3376 20.8999 10.6071V10.8562C20.8999 11.119 20.6876 11.3373 20.4326 11.3373H9.56806C9.3124 11.3373 9.1001 11.119 9.1001 10.8562V10.6071C9.1001 10.3376 9.3124 10.1259 9.56806 10.1259H11.4794C11.8677 10.1259 12.2056 9.84992 12.2929 9.46054L12.393 9.01346C12.5486 8.40447 13.0606 8 13.6465 8H16.3535Z" fill="#D70000"/>
</svg>
