<svg width="204" height="46" viewBox="0 0 204 46" fill="none" xmlns="http://www.w3.org/2000/svg">
<g filter="url(#filter0_di_650_3732)">
<rect x="2" width="200" height="40" rx="12" fill="#115789" shape-rendering="crispEdges"/>
<g filter="url(#filter1_d_650_3732)">
<rect x="2" width="200" height="30" rx="12" fill="#115789"/>
<rect x="3" y="1" width="198" height="28" rx="11" stroke="url(#paint0_linear_650_3732)" stroke-opacity="0.2" stroke-width="2"/>
</g>
<g filter="url(#filter2_d_650_3732)">
<path d="M32.2441 17.541H29.7422V15.8115H32.2441C32.6133 15.8115 32.9095 15.75 33.1328 15.627C33.3607 15.5039 33.527 15.3353 33.6318 15.1211C33.7412 14.9023 33.7959 14.6562 33.7959 14.3828C33.7959 14.1003 33.7412 13.8382 33.6318 13.5967C33.527 13.3506 33.3607 13.1523 33.1328 13.002C32.9095 12.8516 32.6133 12.7764 32.2441 12.7764H30.5488V21H28.3203V11.0469H32.2441C33.0371 11.0469 33.7161 11.1904 34.2812 11.4775C34.8509 11.7646 35.2861 12.1589 35.5869 12.6602C35.8923 13.1569 36.0449 13.7266 36.0449 14.3691C36.0449 15.0117 35.8923 15.57 35.5869 16.0439C35.2861 16.5179 34.8509 16.887 34.2812 17.1514C33.7161 17.4111 33.0371 17.541 32.2441 17.541ZM40.3584 12.9404L37.7881 21H35.4092L39.0938 11.0469H40.5977L40.3584 12.9404ZM42.4912 21L39.9141 12.9404L39.6475 11.0469H41.1719L44.8701 21H42.4912ZM42.3818 17.2949V19.0176H37.1934V17.2949H42.3818ZM46.333 11.0469L48.2812 15.4766L50.2432 11.0469H52.6494L49.416 17.4043V21H47.1533V17.4043L43.9131 11.0469H46.333ZM62.6846 17.6641H64.8994C64.863 18.3477 64.6761 18.9515 64.3389 19.4756C64.0062 19.9951 63.5436 20.403 62.9512 20.6992C62.3587 20.9909 61.6546 21.1367 60.8389 21.1367C60.1872 21.1367 59.6038 21.0251 59.0889 20.8018C58.5739 20.5785 58.1364 20.2594 57.7764 19.8447C57.4209 19.4255 57.1475 18.9219 56.9561 18.334C56.7692 17.7415 56.6758 17.0739 56.6758 16.3311V15.7227C56.6758 14.9798 56.7738 14.3122 56.9697 13.7197C57.1657 13.1273 57.446 12.6214 57.8105 12.2021C58.1751 11.7829 58.6126 11.4616 59.123 11.2383C59.6335 11.015 60.2031 10.9033 60.832 10.9033C61.6797 10.9033 62.3952 11.056 62.9785 11.3613C63.5618 11.6667 64.013 12.0859 64.332 12.6191C64.6556 13.1523 64.8493 13.7607 64.9131 14.4443H62.6914C62.6732 14.057 62.6003 13.7311 62.4727 13.4668C62.3451 13.1979 62.1491 12.9951 61.8848 12.8584C61.6204 12.7217 61.2695 12.6533 60.832 12.6533C60.513 12.6533 60.2327 12.7126 59.9912 12.8311C59.7542 12.9495 59.556 13.1341 59.3965 13.3848C59.2415 13.6354 59.1253 13.9544 59.0479 14.3418C58.9704 14.7246 58.9316 15.1803 58.9316 15.709V16.3311C58.9316 16.8551 58.9658 17.3086 59.0342 17.6914C59.1025 18.0742 59.2119 18.391 59.3623 18.6416C59.5173 18.8923 59.7155 19.0791 59.957 19.2021C60.1986 19.3252 60.4925 19.3867 60.8389 19.3867C61.2354 19.3867 61.5658 19.3252 61.8301 19.2021C62.0944 19.0745 62.2972 18.8831 62.4385 18.6279C62.5798 18.3727 62.6618 18.0514 62.6846 17.6641ZM71.585 11.0469H73.8135V17.582C73.8135 18.3568 73.6494 19.0085 73.3213 19.5371C72.9977 20.0658 72.5465 20.4645 71.9678 20.7334C71.389 21.0023 70.7191 21.1367 69.958 21.1367C69.1924 21.1367 68.5179 21.0023 67.9346 20.7334C67.3558 20.4645 66.9001 20.0658 66.5674 19.5371C66.2393 19.0085 66.0752 18.3568 66.0752 17.582V11.0469H68.3105V17.582C68.3105 18.0104 68.3743 18.3613 68.502 18.6348C68.6341 18.9036 68.8232 19.1019 69.0693 19.2295C69.3154 19.3525 69.6117 19.4141 69.958 19.4141C70.3044 19.4141 70.5983 19.3525 70.8398 19.2295C71.0859 19.1019 71.2705 18.9036 71.3936 18.6348C71.5212 18.3613 71.585 18.0104 71.585 17.582V11.0469ZM80.5674 18.375C80.5674 18.2064 80.5423 18.056 80.4922 17.9238C80.4421 17.7871 80.3509 17.6618 80.2188 17.5479C80.0866 17.4339 79.8997 17.32 79.6582 17.2061C79.4167 17.0876 79.0999 16.9668 78.708 16.8438C78.2614 16.6979 77.8353 16.5339 77.4297 16.3516C77.0286 16.1647 76.6709 15.9482 76.3564 15.7021C76.042 15.4561 75.7936 15.1689 75.6113 14.8408C75.4336 14.5127 75.3447 14.1299 75.3447 13.6924C75.3447 13.2686 75.4382 12.8857 75.625 12.5439C75.8118 12.2021 76.0739 11.9105 76.4111 11.6689C76.7484 11.4229 77.1449 11.236 77.6006 11.1084C78.0563 10.9762 78.5576 10.9102 79.1045 10.9102C79.8337 10.9102 80.474 11.04 81.0254 11.2998C81.5814 11.555 82.0143 11.915 82.3242 12.3799C82.6341 12.8402 82.7891 13.3757 82.7891 13.9863H80.5742C80.5742 13.7174 80.5173 13.4805 80.4033 13.2754C80.2939 13.0658 80.1253 12.9017 79.8975 12.7832C79.6742 12.6647 79.3939 12.6055 79.0566 12.6055C78.7285 12.6055 78.4528 12.6556 78.2295 12.7559C78.0107 12.8516 77.8444 12.9837 77.7305 13.1523C77.6211 13.321 77.5664 13.5055 77.5664 13.7061C77.5664 13.8656 77.6074 14.0114 77.6895 14.1436C77.776 14.2712 77.8991 14.3919 78.0586 14.5059C78.2227 14.6152 78.4232 14.7201 78.6602 14.8203C78.8971 14.9206 79.1683 15.0163 79.4736 15.1074C80.0068 15.276 80.4785 15.4629 80.8887 15.668C81.3034 15.873 81.652 16.1055 81.9346 16.3652C82.2171 16.625 82.429 16.9189 82.5703 17.2471C82.7161 17.5752 82.7891 17.9466 82.7891 18.3613C82.7891 18.8034 82.7025 19.1953 82.5293 19.5371C82.3607 19.8789 82.1146 20.1706 81.791 20.4121C81.472 20.6491 81.0892 20.8291 80.6426 20.9521C80.196 21.0752 79.6969 21.1367 79.1455 21.1367C78.6442 21.1367 78.1497 21.0729 77.6621 20.9453C77.1745 20.8132 76.7324 20.6126 76.3359 20.3438C75.944 20.0749 75.6296 19.7331 75.3926 19.3184C75.1602 18.8991 75.0439 18.4023 75.0439 17.8281H77.2725C77.2725 18.1289 77.3158 18.3841 77.4023 18.5938C77.4889 18.7988 77.612 18.9652 77.7715 19.0928C77.9355 19.2204 78.1338 19.3115 78.3662 19.3662C78.5986 19.4209 78.8584 19.4482 79.1455 19.4482C79.4782 19.4482 79.7471 19.4027 79.9521 19.3115C80.1618 19.2158 80.3167 19.0859 80.417 18.9219C80.5173 18.7578 80.5674 18.5755 80.5674 18.375ZM88.7363 11.0469V21H86.5146V11.0469H88.7363ZM91.7646 11.0469V12.7764H83.5479V11.0469H91.7646ZM100.973 15.8047V16.249C100.973 17.0055 100.868 17.6846 100.658 18.2861C100.453 18.8877 100.159 19.4004 99.7764 19.8242C99.3981 20.248 98.9469 20.5739 98.4229 20.8018C97.9033 21.0251 97.3268 21.1367 96.6934 21.1367C96.0599 21.1367 95.4811 21.0251 94.957 20.8018C94.4329 20.5739 93.9772 20.248 93.5898 19.8242C93.207 19.4004 92.9108 18.8877 92.7012 18.2861C92.4915 17.6846 92.3867 17.0055 92.3867 16.249V15.8047C92.3867 15.0482 92.4915 14.3691 92.7012 13.7676C92.9108 13.1615 93.2048 12.6465 93.583 12.2227C93.9658 11.7988 94.4193 11.4753 94.9434 11.252C95.4674 11.0241 96.0462 10.9102 96.6797 10.9102C97.3132 10.9102 97.8919 11.0241 98.416 11.252C98.9401 11.4753 99.3913 11.7988 99.7695 12.2227C100.152 12.6465 100.449 13.1615 100.658 13.7676C100.868 14.3691 100.973 15.0482 100.973 15.8047ZM98.7236 16.249V15.791C98.7236 15.2852 98.6781 14.8385 98.5869 14.4512C98.4958 14.0592 98.3636 13.7311 98.1904 13.4668C98.0173 13.2025 97.8031 13.0042 97.5479 12.8721C97.2926 12.7354 97.0033 12.667 96.6797 12.667C96.3424 12.667 96.0485 12.7354 95.7979 12.8721C95.5472 13.0042 95.3353 13.2025 95.1621 13.4668C94.9935 13.7311 94.8636 14.0592 94.7725 14.4512C94.6859 14.8385 94.6426 15.2852 94.6426 15.791V16.249C94.6426 16.7503 94.6859 17.1969 94.7725 17.5889C94.8636 17.9762 94.9958 18.3044 95.1689 18.5732C95.3421 18.8421 95.554 19.0449 95.8047 19.1816C96.0599 19.3184 96.3561 19.3867 96.6934 19.3867C97.0169 19.3867 97.304 19.3184 97.5547 19.1816C97.8099 19.0449 98.0241 18.8421 98.1973 18.5732C98.3704 18.3044 98.5003 17.9762 98.5869 17.5889C98.6781 17.1969 98.7236 16.7503 98.7236 16.249ZM103.406 11.0469H105.252L107.645 18.1631L110.03 11.0469H111.876L108.39 21H106.893L103.406 11.0469ZM102.34 11.0469H104.22L104.568 18.4229V21H102.34V11.0469ZM111.062 11.0469H112.949V21H110.714V18.4229L111.062 11.0469ZM122.226 12.9404L119.655 21H117.276L120.961 11.0469H122.465L122.226 12.9404ZM124.358 21L121.781 12.9404L121.515 11.0469H123.039L126.737 21H124.358ZM124.249 17.2949V19.0176H119.061V17.2949H124.249ZM128.631 11.0469H130.477L132.869 18.1631L135.255 11.0469H137.101L133.614 21H132.117L128.631 11.0469ZM127.564 11.0469H129.444L129.793 18.4229V21H127.564V11.0469ZM136.287 11.0469H138.174V21H135.938V18.4229L136.287 11.0469ZM148.127 15.8047V16.249C148.127 17.0055 148.022 17.6846 147.812 18.2861C147.607 18.8877 147.313 19.4004 146.931 19.8242C146.552 20.248 146.101 20.5739 145.577 20.8018C145.058 21.0251 144.481 21.1367 143.848 21.1367C143.214 21.1367 142.635 21.0251 142.111 20.8018C141.587 20.5739 141.132 20.248 140.744 19.8242C140.361 19.4004 140.065 18.8877 139.855 18.2861C139.646 17.6846 139.541 17.0055 139.541 16.249V15.8047C139.541 15.0482 139.646 14.3691 139.855 13.7676C140.065 13.1615 140.359 12.6465 140.737 12.2227C141.12 11.7988 141.574 11.4753 142.098 11.252C142.622 11.0241 143.201 10.9102 143.834 10.9102C144.467 10.9102 145.046 11.0241 145.57 11.252C146.094 11.4753 146.546 11.7988 146.924 12.2227C147.307 12.6465 147.603 13.1615 147.812 13.7676C148.022 14.3691 148.127 15.0482 148.127 15.8047ZM145.878 16.249V15.791C145.878 15.2852 145.832 14.8385 145.741 14.4512C145.65 14.0592 145.518 13.7311 145.345 13.4668C145.172 13.2025 144.957 13.0042 144.702 12.8721C144.447 12.7354 144.158 12.667 143.834 12.667C143.497 12.667 143.203 12.7354 142.952 12.8721C142.701 13.0042 142.49 13.2025 142.316 13.4668C142.148 13.7311 142.018 14.0592 141.927 14.4512C141.84 14.8385 141.797 15.2852 141.797 15.791V16.249C141.797 16.7503 141.84 17.1969 141.927 17.5889C142.018 17.9762 142.15 18.3044 142.323 18.5732C142.496 18.8421 142.708 19.0449 142.959 19.1816C143.214 19.3184 143.51 19.3867 143.848 19.3867C144.171 19.3867 144.458 19.3184 144.709 19.1816C144.964 19.0449 145.178 18.8421 145.352 18.5732C145.525 18.3044 145.655 17.9762 145.741 17.5889C145.832 17.1969 145.878 16.7503 145.878 16.249ZM154.942 11.0469H157.171V17.582C157.171 18.3568 157.007 19.0085 156.679 19.5371C156.355 20.0658 155.904 20.4645 155.325 20.7334C154.746 21.0023 154.076 21.1367 153.315 21.1367C152.55 21.1367 151.875 21.0023 151.292 20.7334C150.713 20.4645 150.257 20.0658 149.925 19.5371C149.597 19.0085 149.433 18.3568 149.433 17.582V11.0469H151.668V17.582C151.668 18.0104 151.732 18.3613 151.859 18.6348C151.992 18.9036 152.181 19.1019 152.427 19.2295C152.673 19.3525 152.969 19.4141 153.315 19.4141C153.662 19.4141 153.956 19.3525 154.197 19.2295C154.443 19.1019 154.628 18.9036 154.751 18.6348C154.879 18.3613 154.942 18.0104 154.942 17.582V11.0469ZM166.974 11.0469V21H164.752L160.992 14.5674V21H158.764V11.0469H160.992L164.759 17.4795V11.0469H166.974ZM173.051 11.0469V21H170.829V11.0469H173.051ZM176.079 11.0469V12.7764H167.862V11.0469H176.079Z" fill="white"/>
</g>
</g>
<defs>
<filter id="filter0_di_650_3732" x="0" y="-2" width="204" height="48" filterUnits="userSpaceOnUse" color-interpolation-filters="sRGB">
<feFlood flood-opacity="0" result="BackgroundImageFix"/>
<feColorMatrix in="SourceAlpha" type="matrix" values="0 0 0 0 0 0 0 0 0 0 0 0 0 0 0 0 0 0 127 0" result="hardAlpha"/>
<feOffset dy="4"/>
<feGaussianBlur stdDeviation="1"/>
<feComposite in2="hardAlpha" operator="out"/>
<feColorMatrix type="matrix" values="0 0 0 0 0 0 0 0 0 0 0 0 0 0 0 0 0 0 0.25 0"/>
<feBlend mode="normal" in2="BackgroundImageFix" result="effect1_dropShadow_650_3732"/>
<feBlend mode="normal" in="SourceGraphic" in2="effect1_dropShadow_650_3732" result="shape"/>
<feColorMatrix in="SourceAlpha" type="matrix" values="0 0 0 0 0 0 0 0 0 0 0 0 0 0 0 0 0 0 127 0" result="hardAlpha"/>
<feOffset dy="-2"/>
<feGaussianBlur stdDeviation="1"/>
<feComposite in2="hardAlpha" operator="arithmetic" k2="-1" k3="1"/>
<feColorMatrix type="matrix" values="0 0 0 0 0 0 0 0 0 0 0 0 0 0 0 0 0 0 0.1 0"/>
<feBlend mode="normal" in2="shape" result="effect2_innerShadow_650_3732"/>
</filter>
<filter id="filter1_d_650_3732" x="2" y="0" width="200" height="40" filterUnits="userSpaceOnUse" color-interpolation-filters="sRGB">
<feFlood flood-opacity="0" result="BackgroundImageFix"/>
<feColorMatrix in="SourceAlpha" type="matrix" values="0 0 0 0 0 0 0 0 0 0 0 0 0 0 0 0 0 0 127 0" result="hardAlpha"/>
<feOffset dy="10"/>
<feComposite in2="hardAlpha" operator="out"/>
<feColorMatrix type="matrix" values="0 0 0 0 0 0 0 0 0 0 0 0 0 0 0 0 0 0 0.2 0"/>
<feBlend mode="normal" in2="BackgroundImageFix" result="effect1_dropShadow_650_3732"/>
<feBlend mode="normal" in="SourceGraphic" in2="effect1_dropShadow_650_3732" result="shape"/>
</filter>
<filter id="filter2_d_650_3732" x="28.3203" y="10.9033" width="147.758" height="12.2334" filterUnits="userSpaceOnUse" color-interpolation-filters="sRGB">
<feFlood flood-opacity="0" result="BackgroundImageFix"/>
<feColorMatrix in="SourceAlpha" type="matrix" values="0 0 0 0 0 0 0 0 0 0 0 0 0 0 0 0 0 0 127 0" result="hardAlpha"/>
<feOffset dy="2"/>
<feComposite in2="hardAlpha" operator="out"/>
<feColorMatrix type="matrix" values="0 0 0 0 0 0 0 0 0 0 0 0 0 0 0 0 0 0 0.15 0"/>
<feBlend mode="normal" in2="BackgroundImageFix" result="effect1_dropShadow_650_3732"/>
<feBlend mode="normal" in="SourceGraphic" in2="effect1_dropShadow_650_3732" result="shape"/>
</filter>
<linearGradient id="paint0_linear_650_3732" x1="102" y1="0" x2="102" y2="30" gradientUnits="userSpaceOnUse">
<stop stop-color="white" stop-opacity="0.5"/>
<stop offset="0.296666" stop-color="white" stop-opacity="0"/>
<stop offset="0.641666" stop-color="white" stop-opacity="0"/>
<stop offset="0.956666" stop-color="white"/>
</linearGradient>
</defs>
</svg>
