<svg width="12" height="14" viewBox="0 0 12 14" fill="none" xmlns="http://www.w3.org/2000/svg">
<path d="M10.5503 4.39026C10.681 4.39026 10.7996 4.44729 10.8933 4.54366C10.9807 4.64658 11.0246 4.77441 11.0119 4.90945C11.0119 4.95402 10.6625 9.37234 10.463 11.2321C10.338 12.3734 9.60227 13.0663 8.49867 13.0853C7.65009 13.1043 6.82064 13.1109 6.00394 13.1109C5.13687 13.1109 4.28893 13.1043 3.46585 13.0853C2.39923 13.0597 1.66286 12.3544 1.54428 11.2321C1.33898 9.36579 0.995982 4.95402 0.989606 4.90945C0.983231 4.77441 1.02658 4.64658 1.11457 4.54366C1.20127 4.44729 1.32623 4.39026 1.45757 4.39026H10.5503ZM7.35497 0C7.93451 0 8.4522 0.404466 8.60202 0.981339L8.70913 1.45988C8.79584 1.84993 9.13374 2.12591 9.52264 2.12591H11.434C11.689 2.12591 11.9013 2.33764 11.9013 2.60707V2.85617C11.9013 3.11904 11.689 3.33734 11.434 3.33734H0.569524C0.313867 3.33734 0.101562 3.11904 0.101562 2.85617V2.60707C0.101562 2.33764 0.313867 2.12591 0.569524 2.12591H2.4809C2.86917 2.12591 3.20707 1.84992 3.29441 1.46054L3.39451 1.01346C3.55007 0.404466 4.06203 0 4.64793 0H7.35497Z" fill="#D70000"/>
</svg>
