<svg width="18" height="18" viewBox="0 0 18 18" fill="none" xmlns="http://www.w3.org/2000/svg">
<path d="M11.7048 2.43811C10.7552 2.42437 9.76508 2.69962 8.99772 3.47244C8.22441 2.70112 7.22477 2.43805 6.30091 2.43805C4.00527 2.43805 1.70703 4.34005 1.70703 7.03178C1.70703 9.6271 3.36701 11.7878 5.00883 13.2567C5.83955 14 6.69157 14.59 7.38351 14.9964C7.72926 15.1994 8.04091 15.3601 8.29519 15.4719C8.42189 15.5277 8.54079 15.5742 8.64668 15.6078C8.73881 15.637 8.86867 15.6724 8.99891 15.6724C9.12915 15.6724 9.25902 15.637 9.35115 15.6078C9.45704 15.5742 9.57594 15.5277 9.70263 15.4719C9.95692 15.3601 10.2686 15.1994 10.6143 14.9964C11.3063 14.59 12.1583 14 12.989 13.2567C14.6308 11.7878 16.2908 9.6271 16.2908 7.03178C16.2908 4.33367 13.9872 2.47113 11.7048 2.43811Z" fill="#ED1B24"/>
</svg>
